<svg width="25" height="24" viewBox="0 0 25 24" fill="none" xmlns="http://www.w3.org/2000/svg">
<path d="M6.5 13.3636C6.5 13.1499 6.64543 12.9636 6.85274 12.9118V12.9118C10.5605 11.9849 14.4395 11.9849 18.1473 12.9118V12.9118C18.3546 12.9636 18.5 13.1499 18.5 13.3636V15C18.5 15.5523 18.0523 16 17.5 16H7.5C6.94772 16 6.5 15.5523 6.5 15V13.3636Z" stroke="#2B1E0F"/>
<path d="M20.5 10.1V4.65985C20.5 3.69742 19.8145 2.87147 18.8686 2.69411L18.0287 2.53662C14.3747 1.85151 10.6253 1.85151 6.97134 2.53662L6.13142 2.69411C5.18548 2.87147 4.5 3.69742 4.5 4.65985V10.1" stroke="#2B1E0F"/>
<path d="M3.5 20H5.5V22H4.5L3.5 20Z" stroke="#2B1E0F" stroke-linejoin="round"/>
<path d="M19.5 20H21.5L20.5 22H19.5V20Z" stroke="#2B1E0F" stroke-linejoin="round"/>
<path d="M3.5 20H21.5" stroke="#2B1E0F" stroke-linejoin="round"/>
<path d="M3.5 20H21.5C22.0523 20 22.5 19.5523 22.5 19V12C22.5 10.8954 21.6046 10 20.5 10C19.3954 10 18.5 10.8954 18.5 12V15C18.5 15.5523 18.0523 16 17.5 16H7.5C6.94772 16 6.5 15.5523 6.5 15V12C6.5 10.8954 5.60457 10 4.5 10C3.39543 10 2.5 10.8954 2.5 12V19C2.5 19.5523 2.94772 20 3.5 20Z" stroke="#2B1E0F" stroke-linejoin="round"/>
</svg>
