<svg width="16" height="16" viewBox="0 0 16 16" fill="none" xmlns="http://www.w3.org/2000/svg">
<path d="M8.01437 1.93945C5.8077 1.93945 4.01437 3.73279 4.01437 5.93945V7.86612C4.01437 8.27279 3.84103 8.89279 3.63437 9.23945L2.8677 10.5128C2.39437 11.2995 2.72104 12.1728 3.5877 12.4661C6.46103 13.4261 9.56103 13.4261 12.4344 12.4661C13.241 12.1995 13.5944 11.2461 13.1544 10.5128L12.3877 9.23945C12.1877 8.89279 12.0144 8.27279 12.0144 7.86612V5.93945C12.0144 3.73945 10.2144 1.93945 8.01437 1.93945Z" stroke="#2B1E0F" stroke-width="1.2" stroke-miterlimit="10" stroke-linecap="round"/>
<path d="M9.24792 2.13297C9.04125 2.07297 8.82792 2.0263 8.60792 1.99964C7.96792 1.91964 7.35458 1.9663 6.78125 2.13297C6.97458 1.63964 7.45458 1.29297 8.01458 1.29297C8.57458 1.29297 9.05458 1.63964 9.24792 2.13297Z" stroke="#2B1E0F" stroke-width="1.2" stroke-miterlimit="10" stroke-linecap="round"/>
<path d="M10 13.334C10 14.0673 9.1 14.6673 8 14.6673C7.45333 14.6673 6.94667 14.5162 6.58667 14.2762C6.22667 14.0362 6 13.6984 6 13.334" stroke="#2B1E0F" stroke-width="1.2" stroke-miterlimit="10" stroke-linecap="round"/>
</svg>
