<svg width="16" height="16" viewBox="0 0 16 16" fill="none" xmlns="http://www.w3.org/2000/svg">
<path d="M8.66732 14.6673H3.33398C2.00065 14.6673 1.33398 14.0007 1.33398 12.6673V7.33398C1.33398 6.00065 2.00065 5.33398 3.33398 5.33398H6.66732V12.6673C6.66732 14.0007 7.33398 14.6673 8.66732 14.6673Z" stroke="#2B1E0F" stroke-width="1.2" stroke-linecap="round" stroke-linejoin="round"/>
<path d="M6.74064 2.66797C6.68731 2.86797 6.66732 3.08797 6.66732 3.33464V5.33464H3.33398V4.0013C3.33398 3.26797 3.93398 2.66797 4.66732 2.66797H6.74064Z" stroke="#2B1E0F" stroke-width="1.2" stroke-linecap="round" stroke-linejoin="round"/>
<path d="M9.33398 5.33398V8.66732" stroke="#2B1E0F" stroke-width="1.2" stroke-linecap="round" stroke-linejoin="round"/>
<path d="M12 5.33398V8.66732" stroke="#2B1E0F" stroke-width="1.2" stroke-linecap="round" stroke-linejoin="round"/>
<path d="M11.334 11.334H10.0007C9.63398 11.334 9.33398 11.634 9.33398 12.0007V14.6673H12.0007V12.0007C12.0007 11.634 11.7007 11.334 11.334 11.334Z" stroke="#2B1E0F" stroke-width="1.2" stroke-linecap="round" stroke-linejoin="round"/>
<path d="M4 8.66797V11.3346" stroke="#2B1E0F" stroke-width="1.2" stroke-linecap="round" stroke-linejoin="round"/>
<path d="M6.66797 12.6673V3.33398C6.66797 2.00065 7.33464 1.33398 8.66797 1.33398H12.668C14.0013 1.33398 14.668 2.00065 14.668 3.33398V12.6673C14.668 14.0007 14.0013 14.6673 12.668 14.6673H8.66797C7.33464 14.6673 6.66797 14.0007 6.66797 12.6673Z" stroke="#2B1E0F" stroke-width="1.2" stroke-linecap="round" stroke-linejoin="round"/>
</svg>
