<svg width="16" height="16" viewBox="0 0 16 16" fill="none" xmlns="http://www.w3.org/2000/svg">
<path d="M8.8878 10.4455C10.2378 10.4455 11.3322 9.35111 11.3322 8.00109C11.3322 6.65106 10.2378 5.55664 8.8878 5.55664C7.53777 5.55664 6.44336 6.65106 6.44336 8.00109C6.44336 9.35111 7.53777 10.4455 8.8878 10.4455Z" stroke="#2B1E0F" stroke-width="1.2" stroke-linecap="round" stroke-linejoin="round"/>
<path d="M12.6658 3.33398H3.33247C2.35063 3.33398 1.55469 4.12992 1.55469 5.11176V10.8895C1.55469 11.8714 2.35063 12.6673 3.33247 12.6673H12.6658C13.6476 12.6673 14.4436 11.8714 14.4436 10.8895V5.11176C14.4436 4.12992 13.6476 3.33398 12.6658 3.33398Z" stroke="#2B1E0F" stroke-width="1.2" stroke-linecap="round" stroke-linejoin="round"/>
<path d="M3.84271 5.55534C3.84271 5.59216 3.81286 5.62201 3.77604 5.62201C3.73922 5.62201 3.70938 5.59216 3.70938 5.55534C3.70938 5.51852 3.73922 5.48867 3.77604 5.48867C3.81286 5.48867 3.84271 5.51852 3.84271 5.55534Z" fill="#212121" stroke="#2B1E0F" stroke-width="1.2"/>
<path d="M3.77734 1.11133H5.99957" stroke="#2B1E0F" stroke-width="1.2" stroke-linecap="round" stroke-linejoin="round"/>
</svg>
