<svg width="16" height="16" viewBox="0 0 16 16" fill="none" xmlns="http://www.w3.org/2000/svg">
<path d="M4.33203 14.6667V10" stroke="#2B1E0F" stroke-width="1.2" stroke-linecap="round" stroke-linejoin="round"/>
<path d="M4.33203 3.33398V1.33398" stroke="#2B1E0F" stroke-width="1.2" stroke-linecap="round" stroke-linejoin="round"/>
<path d="M11.668 14.666V12.666" stroke="#2B1E0F" stroke-width="1.2" stroke-linecap="round" stroke-linejoin="round"/>
<path d="M11.668 6.00065V1.33398" stroke="#2B1E0F" stroke-width="1.2" stroke-linecap="round" stroke-linejoin="round"/>
<path d="M6.33203 4.66732V8.66732C6.33203 9.40065 5.9987 10.0007 4.9987 10.0007H3.66536C2.66536 10.0007 2.33203 9.40065 2.33203 8.66732V4.66732C2.33203 3.93398 2.66536 3.33398 3.66536 3.33398H4.9987C5.9987 3.33398 6.33203 3.93398 6.33203 4.66732Z" stroke="#2B1E0F" stroke-width="1.2" stroke-linecap="round" stroke-linejoin="round"/>
<path d="M13.668 7.33333V11.3333C13.668 12.0667 13.3346 12.6667 12.3346 12.6667H11.0013C10.0013 12.6667 9.66797 12.0667 9.66797 11.3333V7.33333C9.66797 6.6 10.0013 6 11.0013 6H12.3346C13.3346 6 13.668 6.6 13.668 7.33333Z" stroke="#2B1E0F" stroke-width="1.2" stroke-linecap="round" stroke-linejoin="round"/>
</svg>
