<svg width="25" height="24" viewBox="0 0 25 24" fill="none" xmlns="http://www.w3.org/2000/svg">
<path d="M22.0494 15.54C22.3379 15.2453 22.5 14.8457 22.5 14.429V11.2868C22.5 10.8701 22.3379 10.4704 22.0494 10.1758C21.7609 9.88116 21.3696 9.71563 20.9615 9.71563H18.6538L17.4692 6.07062C17.3622 5.74543 17.1539 5.46496 16.8761 5.27204C16.5983 5.07913 16.2663 4.98438 15.9308 5.00226H9.76154C9.42605 4.98438 9.09405 5.07913 8.81625 5.27204C8.53845 5.46496 8.33012 5.74543 8.22308 6.07062L7.11538 9.71563H4.03846C3.63044 9.71563 3.23912 9.88116 2.9506 10.1758C2.66209 10.4704 2.5 10.8701 2.5 11.2868V14.429C2.5 14.8457 2.66209 15.2453 2.9506 15.54" stroke="#2B1E0F" stroke-linecap="round" stroke-linejoin="round"/>
<path d="M7 19.0001C8.933 19.0001 10.5 17.657 10.5 16.0001C10.5 14.3433 8.933 13.0001 7 13.0001C5.067 13.0001 3.5 14.3433 3.5 16.0001C3.5 17.657 5.067 19.0001 7 19.0001Z" stroke="#2B1E0F" stroke-linecap="round" stroke-linejoin="round"/>
<path d="M18 19.0001C19.933 19.0001 21.5 17.657 21.5 16.0001C21.5 14.3433 19.933 13.0001 18 13.0001C16.067 13.0001 14.5 14.3433 14.5 16.0001C14.5 17.657 16.067 19.0001 18 19.0001Z" stroke="#2B1E0F" stroke-linecap="round" stroke-linejoin="round"/>
<path d="M10.5 16.0001H14.5" stroke="#2B1E0F" stroke-linecap="round" stroke-linejoin="round"/>
</svg>
