<svg width="24" height="24" viewBox="0 0 24 24" fill="none" xmlns="http://www.w3.org/2000/svg">
<path d="M11 17.0001H13" stroke="#2B1E0F" stroke-linecap="round" stroke-linejoin="round"/>
<path d="M3 21.0001L7 18.0001" stroke="#2B1E0F" stroke-linecap="round" stroke-linejoin="round"/>
<path d="M3 14.0001L8 16.0001" stroke="#2B1E0F" stroke-linecap="round" stroke-linejoin="round"/>
<path d="M12.6649 5.22247L20.1316 3.03098C20.2417 2.99465 20.3591 2.99031 20.4713 3.01843C20.5836 3.04655 20.6864 3.10606 20.7689 3.19063C20.8559 3.27064 20.922 3.37265 20.9608 3.48697C20.9996 3.60128 21.0098 3.72409 20.9905 3.84372L19.5995 11.2761C19.5617 11.4781 19.2899 11.5004 19.2312 11.3035V11.3035C18.7899 9.61783 17.8546 8.11988 16.5572 7.02101C15.2597 5.92213 13.6657 5.2778 12 5.17893C10.3343 5.2778 8.74027 5.92213 7.44283 7.02101C6.1454 8.11988 5.21007 9.61783 4.76881 11.3035V11.3035C4.71392 11.499 4.43552 11.4767 4.39823 11.2771L3.00949 3.84372C2.99019 3.72409 3.00043 3.60128 3.03922 3.48697C3.07802 3.37265 3.14409 3.27064 3.23114 3.19063C3.3136 3.10606 3.41644 3.04655 3.52867 3.01843C3.6409 2.99031 3.75831 2.99465 3.86837 3.03098L11.3351 5.22247" stroke="#2B1E0F" stroke-linecap="round" stroke-linejoin="round"/>
<path d="M21 21.0001L16 18.0001" stroke="#2B1E0F" stroke-linecap="round" stroke-linejoin="round"/>
<path d="M21 14.0001L16 16.0001" stroke="#2B1E0F" stroke-linecap="round" stroke-linejoin="round"/>
</svg>
