<svg width="16" height="16" viewBox="0 0 16 16" fill="none" xmlns="http://www.w3.org/2000/svg">
<path d="M7.55616 6.06836C7.24327 6.21769 6.94994 6.42214 6.69127 6.68169L6.68239 6.69058C5.45483 7.91814 5.45483 9.90747 6.68239 11.135L8.61572 13.0684C9.84327 14.2959 11.8326 14.2959 13.0602 13.0684L13.0691 13.0595C14.2966 11.8319 14.2966 9.84258 13.0691 8.61503L12.2415 7.78747" stroke="#2B1E0F" stroke-width="1.2" stroke-linecap="round" stroke-linejoin="round"/>
<path d="M8.44527 9.93239C8.75816 9.78305 9.0515 9.57861 9.31016 9.31905L9.31905 9.31016C10.5466 8.08261 10.5466 6.09327 9.31905 4.86572L7.38572 2.93239C6.15816 1.70483 4.16883 1.70483 2.94127 2.93239L2.93239 2.94127C1.70483 4.16883 1.70483 6.15816 2.93239 7.38572L3.75994 8.21327" stroke="#2B1E0F" stroke-width="1.2" stroke-linecap="round" stroke-linejoin="round"/>
</svg>
