<svg width="16" height="16" viewBox="0 0 16 16" fill="none" xmlns="http://www.w3.org/2000/svg">
<g clip-path="url(#clip0_2598_76805)">
<path d="M7.99913 1.55469C4.44002 1.55469 1.55469 4.44002 1.55469 7.99913C1.55469 9.17158 1.87291 10.2676 2.41958 11.2142C2.8018 11.9307 2.37247 13.6249 1.55469 14.4436C2.6658 14.504 4.1298 14.0018 4.78402 13.5787C5.21869 13.8294 5.90758 14.1618 6.8098 14.3325C7.19469 14.4054 7.59291 14.4436 7.99913 14.4436C11.5582 14.4436 14.4436 11.5582 14.4436 7.99913C14.4436 4.44002 11.5582 1.55469 7.99913 1.55469Z" stroke="#2B1E0F" stroke-width="1.2" stroke-linecap="round" stroke-linejoin="round"/>
<path d="M5.32617 10.666C6.01062 11.3522 6.95639 11.7771 7.99995 11.7771C9.0435 11.7771 9.98306 11.3549 10.6666 10.6731" stroke="#2B1E0F" stroke-width="1.2" stroke-linecap="round" stroke-linejoin="round"/>
</g>
<defs>
<clipPath id="clip0_2598_76805">
<rect width="16" height="16" fill="white"/>
</clipPath>
</defs>
</svg>
