<svg width="16" height="16" viewBox="0 0 16 16" fill="none" xmlns="http://www.w3.org/2000/svg">
<g clip-path="url(#clip0_2598_76833)">
<path d="M13.1102 7.11136C11.4125 7.11136 10.0267 5.83758 9.81869 4.19581C9.73069 4.20469 9.64535 4.22247 9.55469 4.22247C8.11647 4.22247 6.95202 3.08203 6.8978 1.65625C3.86402 2.17981 1.55469 4.81714 1.55469 8.00025C1.55469 11.5594 4.44002 14.4447 7.99913 14.4447C11.5582 14.4447 14.4436 11.5594 14.4436 8.00025C14.4436 7.61447 14.4036 7.23847 14.3387 6.87047C13.9582 7.02158 13.5449 7.11136 13.1102 7.11136Z" stroke="#2B1E0F" stroke-width="1.2" stroke-linecap="round" stroke-linejoin="round"/>
<path d="M10.8874 2.22201C11.2556 2.22201 11.554 1.92353 11.554 1.55534C11.554 1.18715 11.2556 0.888672 10.8874 0.888672C10.5192 0.888672 10.2207 1.18715 10.2207 1.55534C10.2207 1.92353 10.5192 2.22201 10.8874 2.22201Z" fill="#2B1E0F"/>
<path d="M13.11 4.44466C13.4782 4.44466 13.7767 4.14618 13.7767 3.77799C13.7767 3.4098 13.4782 3.11133 13.11 3.11133C12.7418 3.11133 12.4434 3.4098 12.4434 3.77799C12.4434 4.14618 12.7418 4.44466 13.11 4.44466Z" fill="#2B1E0F"/>
<path d="M9.9987 11.1107C10.3669 11.1107 10.6654 10.8122 10.6654 10.444C10.6654 10.0758 10.3669 9.77734 9.9987 9.77734C9.63051 9.77734 9.33203 10.0758 9.33203 10.444C9.33203 10.8122 9.63051 11.1107 9.9987 11.1107Z" fill="#2B1E0F"/>
<path d="M6.22092 7.11176C6.71184 7.11176 7.10981 6.71379 7.10981 6.22287C7.10981 5.73195 6.71184 5.33398 6.22092 5.33398C5.73 5.33398 5.33203 5.73195 5.33203 6.22287C5.33203 6.71379 5.73 7.11176 6.22092 7.11176Z" fill="#2B1E0F"/>
<path d="M6.44314 11.1109C7.05679 11.1109 7.55425 10.6134 7.55425 9.99978C7.55425 9.38613 7.05679 8.88867 6.44314 8.88867C5.82949 8.88867 5.33203 9.38613 5.33203 9.99978C5.33203 10.6134 5.82949 11.1109 6.44314 11.1109Z" fill="#2B1E0F"/>
</g>
<defs>
<clipPath id="clip0_2598_76833">
<rect width="16" height="16" fill="white"/>
</clipPath>
</defs>
</svg>
