<svg width="24" height="24" viewBox="0 0 24 24" fill="none" xmlns="http://www.w3.org/2000/svg">
<path d="M16.6154 9.28565V12.4285C16.6154 12.8453 16.7775 13.245 17.066 13.5397C17.3545 13.8344 17.7458 13.9999 18.1538 13.9999H18.9231C19.7391 13.9999 20.5218 13.6688 21.0988 13.0794C21.6758 12.49 22 11.6906 22 10.8571V6.1428C22 5.72603 21.8379 5.32633 21.5494 5.03163C21.2609 4.73693 20.8696 4.57137 20.4615 4.57137H18.1538C17.667 4.57089 17.1872 4.45241 16.7538 4.22565C15.285 3.44267 13.6567 3.02284 12 2.99994C10.3329 3.01791 8.69349 3.43789 7.21538 4.22565C6.79001 4.44398 6.32212 4.56211 5.84615 4.57137H3.53846C3.13044 4.57137 2.73912 4.73693 2.4506 5.03163C2.16209 5.32633 2 5.72603 2 6.1428V10.8571C2 11.6906 2.32417 12.49 2.90121 13.0794C3.47824 13.6688 4.26087 13.9999 5.07692 13.9999H5.84615C6.25418 13.9999 6.64549 13.8344 6.93401 13.5397C7.22253 13.245 7.38462 12.8453 7.38462 12.4285V9.28565" stroke="#2B1E0F" stroke-linecap="round" stroke-linejoin="round"/>
<path d="M19 13.9999L18.5178 16.1904C18.2212 17.5453 17.409 18.7657 16.2201 19.643C15.0313 20.5203 13.5395 20.9999 12 20.9999C10.4605 20.9999 8.96874 20.5203 7.77987 19.643C6.59101 18.7657 5.77884 17.5453 5.48222 16.1904L5 13.9999" stroke="#2B1E0F" stroke-linecap="round" stroke-linejoin="round"/>
<path d="M11 16.9999H13" stroke="#2B1E0F" stroke-linecap="round" stroke-linejoin="round"/>
</svg>
