<svg width="25" height="24" viewBox="0 0 25 24" fill="none" xmlns="http://www.w3.org/2000/svg">
<path d="M3.5 5C3.5 3.89543 4.39543 3 5.5 3H19.5C20.6046 3 21.5 3.89543 21.5 5V20C21.5 21.1046 20.6046 22 19.5 22H5.5C4.39543 22 3.5 21.1046 3.5 20V5Z" stroke="#2B1E0F" stroke-linejoin="round"/>
<path d="M7.5 11C7.5 10.4477 7.94772 10 8.5 10H16.5C17.0523 10 17.5 10.4477 17.5 11V19C17.5 19.5523 17.0523 20 16.5 20H8.5C7.94772 20 7.5 19.5523 7.5 19V11Z" stroke="#2B1E0F" stroke-linejoin="round"/>
<path d="M3.5 8L21.5 8" stroke="#2B1E0F" stroke-linejoin="round"/>
<path d="M19 6H18.5" stroke="#2B1E0F" stroke-linecap="round" stroke-linejoin="round"/>
<path d="M17 6H16.5" stroke="#2B1E0F" stroke-linecap="round" stroke-linejoin="round"/>
<path d="M16 14V15.5" stroke="#2B1E0F" stroke-linecap="round" stroke-linejoin="round"/>
<path d="M9 6H6.5" stroke="#2B1E0F" stroke-linecap="round" stroke-linejoin="round"/>
</svg>
