<svg width="16" height="16" viewBox="0 0 16 16" fill="none" xmlns="http://www.w3.org/2000/svg">
<path d="M10.3866 7.99992C10.3866 9.31992 9.31992 10.3866 7.99992 10.3866C6.67992 10.3866 5.61328 9.31992 5.61328 7.99992C5.61328 6.67992 6.67992 5.61328 7.99992 5.61328C9.31992 5.61328 10.3866 6.67992 10.3866 7.99992Z" stroke="#2B1E0F" stroke-width="1.2" stroke-linecap="round" stroke-linejoin="round"/>
<path d="M7.99992 13.5138C10.3532 13.5138 12.5466 12.1272 14.0733 9.72716C14.6733 8.78716 14.6733 7.20716 14.0733 6.26714C12.5466 3.86714 10.3532 2.48047 7.99992 2.48047C5.64656 2.48047 3.45323 3.86714 1.92656 6.26714C1.32656 7.20716 1.32656 8.78716 1.92656 9.72716C3.45323 12.1272 5.64656 13.5138 7.99992 13.5138Z" stroke="#2B1E0F" stroke-width="1.2" stroke-linecap="round" stroke-linejoin="round"/>
</svg>
