<svg width="25" height="24" viewBox="0 0 25 24" fill="none" xmlns="http://www.w3.org/2000/svg">
<rect x="2.5" y="20" width="20" height="2" stroke="#2B1E0F" stroke-linejoin="round"/>
<path d="M3.5 12C3.5 7.02944 7.52944 3 12.5 3V3C17.4706 3 21.5 7.02944 21.5 12V20H3.5V12Z" stroke="#2B1E0F" stroke-linejoin="round"/>
<path d="M6.5 12C6.5 8.68629 9.18629 6 12.5 6V6C15.8137 6 18.5 8.68629 18.5 12V20H6.5V12Z" stroke="#2B1E0F" stroke-linejoin="round"/>
<path d="M15.5 17.4545C15.5 18.8604 14.1569 20 12.5 20C10.8431 20 9.5 18.8604 9.5 17.4545C9.5 14.9091 12.5 13 12.5 13C12.5 13 15.5 14.9091 15.5 17.4545Z" stroke="#2B1E0F"/>
<path d="M4 17H6M6.5 11.5H4M8 7.5L6.5 6M12.5 5.5V3.5M17 7.5L18.5 6M19 12H21M19 17H21" stroke="#2B1E0F" stroke-linecap="round" stroke-linejoin="round"/>
</svg>
