<svg width="25" height="24" viewBox="0 0 25 24" fill="none" xmlns="http://www.w3.org/2000/svg">
<path d="M2.49994 8H22.4999V21.2222C22.4999 21.4285 22.4189 21.6263 22.2746 21.7722C22.1304 21.9181 21.9347 22 21.7307 22H3.26917C3.06516 22 2.8695 21.9181 2.72524 21.7722C2.58098 21.6263 2.49994 21.4285 2.49994 21.2222V8Z" stroke="#2B1E0F" stroke-linecap="round" stroke-linejoin="round"/>
<path d="M2.49994 8C2.49994 6.4087 3.14829 4.88258 4.30236 3.75736C5.45643 2.63214 7.02168 2 8.65379 2H16.3461C17.9782 2 19.5434 2.63214 20.6975 3.75736C21.8516 4.88258 22.4999 6.4087 22.4999 8" stroke="#2B1E0F" stroke-linecap="round" stroke-linejoin="round"/>
<path d="M18.4999 22V13.75C18.4999 13.5511 18.4209 13.3603 18.2803 13.2197C18.1396 13.079 17.9489 13 17.7499 13H7.24994C7.05103 13 6.86026 13.079 6.71961 13.2197C6.57896 13.3603 6.49994 13.5511 6.49994 13.75V22" stroke="#2B1E0F" stroke-linecap="round" stroke-linejoin="round"/>
<path d="M6.49994 16H18.4999" stroke="#2B1E0F" stroke-linecap="round" stroke-linejoin="round"/>
<path d="M6.49994 19H18.4999" stroke="#2B1E0F" stroke-linecap="round" stroke-linejoin="round"/>
</svg>
