<svg width="25" height="24" viewBox="0 0 25 24" fill="none" xmlns="http://www.w3.org/2000/svg">
<path d="M2.5 13H22.5V22H2.5V13Z" stroke="#2B1E0F" stroke-linejoin="round"/>
<path d="M2.5 5H6.5V8H2.5V5Z" stroke="#2B1E0F" stroke-linejoin="round"/>
<path d="M17.5 5H22.5V8H17.5V5Z" stroke="#2B1E0F" stroke-linejoin="round"/>
<path d="M10 17.5H14V20.5H10V17.5Z" stroke="#2B1E0F" stroke-linejoin="round"/>
<path d="M8.5 13L8.5 22" stroke="#2B1E0F" stroke-linejoin="round"/>
<circle cx="10" cy="14.5" r="0.5" fill="#2B1E0F"/>
<circle cx="12" cy="14.5" r="0.5" fill="#2B1E0F"/>
<circle cx="14" cy="14.5" r="0.5" fill="#2B1E0F"/>
<path d="M15.5 13L15.5 22" stroke="#2B1E0F" stroke-linejoin="round"/>
<path d="M22.5 16H15.5" stroke="#2B1E0F" stroke-linejoin="round"/>
<path d="M8.5 16H2.5" stroke="#2B1E0F" stroke-linejoin="round"/>
<path d="M8.5 19H2.5" stroke="#2B1E0F" stroke-linejoin="round"/>
<path d="M14 2.5V5L15.5 6.5V8H8.5V6.5L10 5V2.5" stroke="#2B1E0F" stroke-linecap="round" stroke-linejoin="round"/>
</svg>
