<svg width="16" height="16" viewBox="0 0 16 16" fill="none" xmlns="http://www.w3.org/2000/svg">
<path d="M1.52734 5.186V11.6727C1.52734 12.9393 2.42734 13.4593 3.52068 12.8327L5.08734 11.9393C5.42734 11.746 5.99401 11.726 6.34734 11.906L9.84734 13.6593C10.2007 13.8327 10.7673 13.8193 11.1073 13.626L13.994 11.9727C14.3607 11.7593 14.6673 11.2393 14.6673 10.8127V4.326C14.6673 3.05933 13.7673 2.53933 12.674 3.166L11.1073 4.05933C10.7673 4.25267 10.2007 4.27267 9.84734 4.09267L6.34734 2.346C5.99401 2.17267 5.42734 2.186 5.08734 2.37933L2.20068 4.03267C1.82734 4.246 1.52734 4.766 1.52734 5.186Z" stroke="#2B1E0F" stroke-width="1.2" stroke-linecap="round" stroke-linejoin="round"/>
<path d="M5.70703 2.66602V11.3327" stroke="#2B1E0F" stroke-width="1.2" stroke-linecap="round" stroke-linejoin="round"/>
<path d="M10.4863 4.41406V13.3341" stroke="#2B1E0F" stroke-width="1.2" stroke-linecap="round" stroke-linejoin="round"/>
</svg>
