<svg width="25" height="24" viewBox="0 0 25 24" fill="none" xmlns="http://www.w3.org/2000/svg">
<path d="M15.6293 14.1943L14.108 16.0956C11.752 14.7103 9.78796 12.7476 8.40396 10.3916L10.3053 8.87027C10.764 8.5036 10.9173 7.87294 10.6786 7.33694L8.94529 3.43427C8.68796 2.8556 8.05062 2.54894 7.43862 2.7076L4.13862 3.5636C3.50129 3.73027 3.08929 4.3476 3.17996 4.9996C4.36929 13.4716 11.028 20.1303 19.5013 21.3209C20.1533 21.4103 20.7706 20.9983 20.936 20.3623L21.792 17.0623C21.9506 16.4503 21.644 15.8143 21.0666 15.5569L17.164 13.8236C16.628 13.5849 15.9986 13.7383 15.6306 14.1956L15.6293 14.1943Z" stroke="#2B1E0F" stroke-linecap="round" stroke-linejoin="round"/>
</svg>
