<svg width="24" height="24" viewBox="0 0 24 24" fill="none" xmlns="http://www.w3.org/2000/svg">
<path d="M2 18H22V20H2V18Z" stroke="black" stroke-linejoin="round"/>
<path d="M2 14C2 13.4477 2.44772 13 3 13H21C21.5523 13 22 13.4477 22 14V18H2V14Z" stroke="black" stroke-linejoin="round"/>
<rect x="11" y="9" width="4" height="6" rx="1" transform="rotate(90 11 9)" stroke="black" stroke-linejoin="round"/>
<rect x="19" y="9" width="4" height="6" rx="1" transform="rotate(90 19 9)" stroke="black" stroke-linejoin="round"/>
<path d="M20 5C20.5523 5 21 5.44772 21 6L21 13L3 13L3 6C3 5.44771 3.44772 5 4 5L20 5Z" stroke="black" stroke-linejoin="round"/>
<path d="M19 20H21V22H20L19 20Z" stroke="black" stroke-linejoin="round"/>
<path d="M3 20H5L4 22H3V20Z" stroke="black" stroke-linejoin="round"/>
</svg>
