<svg width="25" height="24" viewBox="0 0 25 24" fill="none" xmlns="http://www.w3.org/2000/svg">
<path d="M12.5 1.5V22.5M15.2056 3.75C14.3891 4.24216 13.4534 4.50152 12.5 4.5C11.5466 4.50152 10.611 4.24216 9.79439 3.75M9.79439 20.25C10.6116 19.7592 11.5468 19.5 12.5 19.5C13.4532 19.5 14.3885 19.7592 15.2056 20.25M21.5933 6.75L3.40674 17.25M20.997 10.2188C20.1633 9.75637 19.4711 9.07584 18.9945 8.25009C18.518 7.42434 18.2751 6.48449 18.2919 5.53125M4.00299 13.7812C4.83675 14.2436 5.52898 14.9242 6.00552 15.7499C6.48206 16.5757 6.72494 17.5155 6.70814 18.4688M3.40674 6.75L21.5933 17.25M4.00299 10.2188C4.83675 9.75637 5.52898 9.07584 6.00552 8.25009C6.48206 7.42434 6.72494 6.48449 6.70814 5.53125M20.997 13.7812C20.1633 14.2436 19.4711 14.9242 18.9945 15.7499C18.518 16.5757 18.2751 17.5155 18.2919 18.4688" stroke="#2B1E0F" stroke-linecap="round" stroke-linejoin="round"/>
</svg>
