<svg width="16" height="16" viewBox="0 0 16 16" fill="none" xmlns="http://www.w3.org/2000/svg">
<path d="M13.9987 7.66732C13.9987 11.1673 11.1654 14.0007 7.66536 14.0007C4.16536 14.0007 1.33203 11.1673 1.33203 7.66732C1.33203 4.16732 4.16536 1.33398 7.66536 1.33398" stroke="#2B1E0F" stroke-width="1.2" stroke-linecap="round" stroke-linejoin="round"/>
<path d="M14.6654 14.6673L13.332 13.334" stroke="#2B1E0F" stroke-width="1.2" stroke-linecap="round" stroke-linejoin="round"/>
<path d="M9.66661 4.08737C9.43328 3.35404 9.70661 2.44071 10.4799 2.19404C10.8866 2.06071 11.3866 2.17404 11.6733 2.56737C11.9399 2.16071 12.4599 2.06737 12.8599 2.19404C13.6333 2.44071 13.9066 3.35404 13.6733 4.08737C13.3066 5.25404 12.0266 5.86071 11.6733 5.86071C11.3133 5.86071 10.0466 5.26737 9.66661 4.08737Z" stroke="#2B1E0F" stroke-width="1.2" stroke-linecap="round" stroke-linejoin="round"/>
</svg>
