<svg width="16" height="16" viewBox="0 0 16 16" fill="none" xmlns="http://www.w3.org/2000/svg">
<path d="M1.33203 8.5863V7.41297C1.33203 6.71963 1.8987 6.1463 2.5987 6.1463C3.80536 6.1463 4.2987 5.29297 3.69203 4.2463C3.34536 3.6463 3.55203 2.8663 4.1587 2.51963L5.31203 1.85963C5.8387 1.5463 6.5187 1.73297 6.83203 2.25963L6.90536 2.3863C7.50536 3.43297 8.49203 3.43297 9.0987 2.3863L9.17203 2.25963C9.48536 1.73297 10.1654 1.5463 10.692 1.85963L11.8454 2.51963C12.452 2.8663 12.6587 3.6463 12.312 4.2463C11.7054 5.29297 12.1987 6.1463 13.4054 6.1463C14.0987 6.1463 14.672 6.71297 14.672 7.41297V8.5863C14.672 9.27963 14.1054 9.85297 13.4054 9.85297C12.1987 9.85297 11.7054 10.7063 12.312 11.753C12.6587 12.3596 12.452 13.133 11.8454 13.4796L10.692 14.1396C10.1654 14.453 9.48536 14.2663 9.17203 13.7396L9.0987 13.613C8.4987 12.5663 7.51203 12.5663 6.90536 13.613L6.83203 13.7396C6.5187 14.2663 5.8387 14.453 5.31203 14.1396L4.1587 13.4796C3.55203 13.133 3.34536 12.353 3.69203 11.753C4.2987 10.7063 3.80536 9.85297 2.5987 9.85297C1.8987 9.85297 1.33203 9.27963 1.33203 8.5863Z" stroke="#2B1E0F" stroke-width="1.2" stroke-linecap="round" stroke-linejoin="round"/>
<path d="M8 10C9.10457 10 10 9.10457 10 8C10 6.89543 9.10457 6 8 6C6.89543 6 6 6.89543 6 8C6 9.10457 6.89543 10 8 10Z" stroke="#2B1E0F" stroke-width="1.2" stroke-linecap="round" stroke-linejoin="round"/>
</svg>
