<svg width="16" height="16" viewBox="0 0 16 16" fill="none" xmlns="http://www.w3.org/2000/svg">
<path d="M4.66536 4H11.332C11.7454 4 12.112 4.01333 12.4387 4.06C14.192 4.25333 14.6654 5.08 14.6654 7.33333V8.66667C14.6654 10.92 14.192 11.7467 12.4387 11.94C12.112 11.9867 11.7454 12 11.332 12H4.66536C4.25203 12 3.88536 11.9867 3.5587 11.94C1.80536 11.7467 1.33203 10.92 1.33203 8.66667V7.33333C1.33203 5.08 1.80536 4.25333 3.5587 4.06C3.88536 4.01333 4.25203 4 4.66536 4Z" stroke="#2B1E0F" stroke-width="1.2" stroke-linecap="round" stroke-linejoin="round"/>
<path d="M11.3347 11.9995C11.748 11.9995 12.1147 11.9861 12.4414 11.9395C12.448 12.0328 12.448 12.1195 12.448 12.2195V12.4461C12.448 14.2195 12.0014 14.6661 10.2214 14.6661H5.78135C4.00135 14.6661 3.55469 14.2195 3.55469 12.4461V12.2195C3.55469 12.1195 3.55469 12.0328 3.56135 11.9395C3.88802 11.9861 4.25469 11.9995 4.66802 11.9995H11.3347Z" stroke="#2B1E0F" stroke-width="1.2" stroke-linecap="round" stroke-linejoin="round"/>
<path d="M5.78135 1.33398H10.2214C12.0014 1.33398 12.448 1.78065 12.448 3.55398V3.78065C12.448 3.88065 12.448 3.96732 12.4414 4.06065C12.1147 4.01398 11.748 4.00065 11.3347 4.00065H4.66802C4.25469 4.00065 3.88802 4.01398 3.56135 4.06065C3.55469 3.96732 3.55469 3.88065 3.55469 3.78065V3.55398C3.55469 1.78065 4.00135 1.33398 5.78135 1.33398Z" stroke="#2B1E0F" stroke-width="1.2" stroke-linecap="round" stroke-linejoin="round"/>
</svg>
