<svg width="24" height="24" viewBox="0 0 24 24" fill="none" xmlns="http://www.w3.org/2000/svg">
<path d="M21.2308 11.5H2.76923C2.3444 11.5 2 11.5995 2 11.7222V15.2778C2 15.4005 2.3444 15.5 2.76923 15.5H21.2308C21.6556 15.5 22 15.4005 22 15.2778V11.7222C22 11.5995 21.6556 11.5 21.2308 11.5Z" stroke="#2B1E0F" stroke-linecap="round" stroke-linejoin="round"/>
<path d="M21.6923 11.5H14.3077C14.1378 11.5 14 11.5995 14 11.7222V15.2778C14 15.4005 14.1378 15.5 14.3077 15.5H21.6923C21.8622 15.5 22 15.4005 22 15.2778V11.7222C22 11.5995 21.8622 11.5 21.6923 11.5Z" stroke="#2B1E0F" stroke-linecap="round" stroke-linejoin="round"/>
<path d="M2 9.5C2 8.66667 2.5 6.8 4.5 6C6.5 5.2 7 3.66667 7 3" stroke="#2B1E0F" stroke-linecap="round" stroke-linejoin="round"/>
<path d="M5 9.5C5 8.66667 5.5 7.8 7.5 7C9.5 6.2 10 4.66667 10 4" stroke="#2B1E0F" stroke-linecap="round" stroke-linejoin="round"/>
</svg>
