<svg width="16" height="16" viewBox="0 0 16 16" fill="none" xmlns="http://www.w3.org/2000/svg">
<path d="M10.26 3.47398L11.2 5.35398C11.3266 5.61398 11.6666 5.86064 11.9533 5.91398L13.6533 6.19398C14.74 6.37398 14.9933 7.16065 14.2133 7.94731L12.8866 9.27398C12.6666 9.49398 12.54 9.92731 12.6133 10.2406L12.9933 11.8807C13.2933 13.174 12.6 13.6806 11.46 13.0006L9.86663 12.054C9.57996 11.8806 9.09997 11.8806 8.8133 12.054L7.21996 13.0006C6.07996 13.674 5.38663 13.174 5.68663 11.8807L6.06664 10.2406C6.13997 9.93398 6.0133 9.50065 5.7933 9.27398L4.46664 7.94731C3.68664 7.16731 3.93997 6.38064 5.02664 6.19398L6.72663 5.91398C7.0133 5.86731 7.3533 5.61398 7.47997 5.35398L8.41997 3.47398C8.91997 2.45398 9.74664 2.45398 10.26 3.47398Z" stroke="#2B1E0F" stroke-width="1.2" stroke-linecap="round" stroke-linejoin="round"/>
<path d="M5.33203 3.33398H1.33203" stroke="#2B1E0F" stroke-width="1.2" stroke-linecap="round" stroke-linejoin="round"/>
<path d="M3.33203 12.666H1.33203" stroke="#2B1E0F" stroke-width="1.2" stroke-linecap="round" stroke-linejoin="round"/>
<path d="M1.9987 8H1.33203" stroke="#2B1E0F" stroke-width="1.2" stroke-linecap="round" stroke-linejoin="round"/>
</svg>
