<svg width="16" height="16" viewBox="0 0 16 16" fill="none" xmlns="http://www.w3.org/2000/svg">
<path d="M10.0852 9.46285L9.07099 10.7304C7.50033 9.80685 6.19099 8.4984 5.26833 6.92774L6.53588 5.91351C6.84166 5.66907 6.94388 5.24863 6.78477 4.89129L5.62922 2.28951C5.45766 1.90374 5.03277 1.69929 4.62477 1.80507L2.42477 2.37574C1.99988 2.48685 1.72522 2.8984 1.78566 3.33307C2.57855 8.98107 7.01766 13.4202 12.6666 14.214C13.1012 14.2735 13.5128 13.9988 13.623 13.5748L14.1937 11.3748C14.2994 10.9668 14.095 10.5428 13.7101 10.3713L11.1083 9.21574C10.751 9.05663 10.3314 9.15885 10.0861 9.46374L10.0852 9.46285Z" stroke="#2B1E0F" stroke-width="1.2" stroke-linecap="round" stroke-linejoin="round"/>
</svg>
