<svg width="16" height="16" viewBox="0 0 16 16" fill="none" xmlns="http://www.w3.org/2000/svg">
<g clip-path="url(#clip0_2598_76815)">
<path d="M11.332 14H4.66536C1.9987 14 1.33203 13.3333 1.33203 10.6667V5.33333C1.33203 2.66667 1.9987 2 4.66536 2H11.332C13.9987 2 14.6654 2.66667 14.6654 5.33333V10.6667C14.6654 13.3333 13.9987 14 11.332 14Z" stroke="#2B1E0F" stroke-width="1.2" stroke-linecap="round" stroke-linejoin="round"/>
<path d="M9.33203 5.33398H12.6654" stroke="#2B1E0F" stroke-width="1.2" stroke-linecap="round" stroke-linejoin="round"/>
<path d="M10 8H12.6667" stroke="#2B1E0F" stroke-width="1.2" stroke-linecap="round" stroke-linejoin="round"/>
<path d="M11.332 10.666H12.6654" stroke="#2B1E0F" stroke-width="1.2" stroke-linecap="round" stroke-linejoin="round"/>
<path d="M5.6676 7.52661C6.33403 7.52661 6.87427 6.98637 6.87427 6.31995C6.87427 5.65352 6.33403 5.11328 5.6676 5.11328C5.00118 5.11328 4.46094 5.65352 4.46094 6.31995C4.46094 6.98637 5.00118 7.52661 5.6676 7.52661Z" stroke="#2B1E0F" stroke-width="1.2" stroke-linecap="round" stroke-linejoin="round"/>
<path d="M7.9987 10.8872C7.90536 9.92049 7.1387 9.16049 6.17203 9.07383C5.8387 9.04049 5.4987 9.04049 5.1587 9.07383C4.19203 9.16716 3.42536 9.92049 3.33203 10.8872" stroke="#2B1E0F" stroke-width="1.2" stroke-linecap="round" stroke-linejoin="round"/>
</g>
<defs>
<clipPath id="clip0_2598_76815">
<rect width="16" height="16" fill="white"/>
</clipPath>
</defs>
</svg>
