<svg width="16" height="16" viewBox="0 0 16 16" fill="none" xmlns="http://www.w3.org/2000/svg">
<path d="M12.0007 4.77399C11.9607 4.76732 11.914 4.76732 11.874 4.77399C10.954 4.74065 10.2207 3.98732 10.2207 3.05399C10.2207 2.10065 10.9874 1.33398 11.9407 1.33398C12.894 1.33398 13.6607 2.10732 13.6607 3.05399C13.654 3.98732 12.9207 4.74065 12.0007 4.77399Z" stroke="#2B1E0F" stroke-width="1.2" stroke-linecap="round" stroke-linejoin="round"/>
<path d="M11.3149 9.62743C12.2283 9.78076 13.2349 9.62076 13.9416 9.14742C14.8816 8.52076 14.8816 7.49409 13.9416 6.86743C13.2283 6.39409 12.2083 6.23409 11.2949 6.39409" stroke="#2B1E0F" stroke-width="1.2" stroke-linecap="round" stroke-linejoin="round"/>
<path d="M3.98031 4.77399C4.02031 4.76732 4.06698 4.76732 4.10698 4.77399C5.02698 4.74065 5.76031 3.98732 5.76031 3.05399C5.76031 2.10065 4.99365 1.33398 4.04031 1.33398C3.08698 1.33398 2.32031 2.10732 2.32031 3.05399C2.32698 3.98732 3.06031 4.74065 3.98031 4.77399Z" stroke="#2B1E0F" stroke-width="1.2" stroke-linecap="round" stroke-linejoin="round"/>
<path d="M4.6676 9.6273C3.75427 9.78064 2.7476 9.62064 2.04094 9.1473C1.10094 8.52064 1.10094 7.49397 2.04094 6.8673C2.75427 6.39397 3.77427 6.23397 4.6876 6.39397" stroke="#2B1E0F" stroke-width="1.2" stroke-linecap="round" stroke-linejoin="round"/>
<path d="M8.0007 9.75446C7.9607 9.74779 7.91404 9.74779 7.87404 9.75446C6.95404 9.72112 6.2207 8.96779 6.2207 8.03445C6.2207 7.08112 6.98737 6.31445 7.9407 6.31445C8.89403 6.31445 9.6607 7.08779 9.6607 8.03445C9.65404 8.96779 8.9207 9.72779 8.0007 9.75446Z" stroke="#2B1E0F" stroke-width="1.2" stroke-linecap="round" stroke-linejoin="round"/>
<path d="M6.06047 11.8545C5.12047 12.4811 5.12047 13.5078 6.06047 14.1345C7.12714 14.8478 8.8738 14.8478 9.94047 14.1345C10.8805 13.5078 10.8805 12.4811 9.94047 11.8545C8.88047 11.1478 7.12714 11.1478 6.06047 11.8545Z" stroke="#2B1E0F" stroke-width="1.2" stroke-linecap="round" stroke-linejoin="round"/>
</svg>
