<svg width="16" height="16" viewBox="0 0 16 16" fill="none" xmlns="http://www.w3.org/2000/svg">
<path d="M11.8736 3.66065V4.15398L9.51362 2.78732C8.62029 2.27398 7.37362 2.27398 6.48695 2.78732L4.12695 4.16065V3.66065C4.12695 2.16065 4.94695 1.33398 6.44695 1.33398H9.55362C11.0536 1.33398 11.8736 2.16065 11.8736 3.66065Z" fill="#2B1E0F"/>
<path d="M11.894 5.31349L11.8007 5.26682L10.894 4.74682L9.01398 3.66016C8.44065 3.32682 7.56065 3.32682 6.98732 3.66016L5.10732 4.74016L4.20065 5.27349L4.08065 5.33349C2.91398 6.12016 2.83398 6.26682 2.83398 7.52682V10.5402C2.83398 11.8002 2.91398 11.9468 4.10732 12.7535L6.98732 14.4135C7.27398 14.5868 7.63398 14.6602 8.00065 14.6602C8.36065 14.6602 8.72732 14.5802 9.01398 14.4135L11.9206 12.7335C13.094 11.9468 13.1673 11.8068 13.1673 10.5402V7.52682C13.1673 6.26682 13.0873 6.12016 11.894 5.31349ZM9.86065 9.00016L9.45398 9.50016C9.38732 9.57349 9.34065 9.71349 9.34732 9.81349L9.38732 10.4535C9.41398 10.8468 9.13398 11.0468 8.76732 10.9068L8.17398 10.6668C8.08065 10.6335 7.92732 10.6335 7.83398 10.6668L7.24065 10.9002C6.87398 11.0468 6.59398 10.8402 6.62065 10.4468L6.66065 9.80682C6.66732 9.70682 6.62065 9.56682 6.55398 9.49349L6.14065 9.00016C5.88732 8.70016 6.00065 8.36682 6.38065 8.26682L7.00065 8.10682C7.10065 8.08016 7.21398 7.98682 7.26732 7.90682L7.61398 7.37349C7.82732 7.04016 8.16732 7.04016 8.38732 7.37349L8.73398 7.90682C8.78732 7.99349 8.90732 8.08016 9.00065 8.10682L9.62065 8.26682C10.0007 8.36682 10.114 8.70016 9.86065 9.00016Z" fill="#2B1E0F"/>
</svg>
