<svg width="16" height="16" viewBox="0 0 16 16" fill="none" xmlns="http://www.w3.org/2000/svg">
<path d="M12.6665 2.66669H11.1288L10.8408 1.89869C10.615 1.29425 10.0292 0.888916 9.38387 0.888916H6.61587C5.97054 0.888916 5.38565 1.29514 5.15987 1.89869L4.87187 2.66669H3.33409C1.98565 2.66669 0.889648 3.76269 0.889648 5.11114V10.8889C0.889648 12.2374 1.98565 13.3334 3.33409 13.3334H12.6665C14.015 13.3334 15.111 12.2374 15.111 10.8889V5.11114C15.111 3.76269 14.015 2.66669 12.6665 2.66669ZM3.77765 6.22225C3.40965 6.22225 3.11098 5.92358 3.11098 5.55558C3.11098 5.18758 3.40965 4.88892 3.77765 4.88892C4.14565 4.88892 4.44431 5.18758 4.44431 5.55558C4.44431 5.92358 4.14565 6.22225 3.77765 6.22225ZM7.99987 10.6667C6.52698 10.6667 5.3332 9.47292 5.3332 8.00003C5.3332 6.52714 6.52698 5.33336 7.99987 5.33336C9.47276 5.33336 10.6665 6.52714 10.6665 8.00003C10.6665 9.47292 9.47276 10.6667 7.99987 10.6667Z" fill="#2B1E0F"/>
</svg>
