<svg width="16" height="16" viewBox="0 0 16 16" fill="none" xmlns="http://www.w3.org/2000/svg">
<path d="M14 10.514C14 12.698 12.698 14 10.514 14H9.8C9.47 14 9.2 13.73 9.2 13.4V9.938C9.2 9.776 9.332 9.638 9.494 9.638L10.55 9.62C10.634 9.614 10.706 9.554 10.724 9.47L10.934 8.324C10.952 8.216 10.868 8.114 10.754 8.114L9.476 8.132C9.308 8.132 9.176 8 9.17 7.838L9.146 6.368C9.146 6.272 9.224 6.18801 9.326 6.18801L10.766 6.164C10.868 6.164 10.946 6.08601 10.946 5.98401L10.922 4.54399C10.922 4.44199 10.844 4.364 10.742 4.364L9.122 4.38801C8.126 4.40601 7.334 5.222 7.352 6.218L7.382 7.868C7.388 8.036 7.256 8.168 7.088 8.174L6.368 8.186C6.266 8.186 6.18801 8.264 6.18801 8.366L6.20601 9.506C6.20601 9.608 6.284 9.686 6.386 9.686L7.106 9.674C7.274 9.674 7.406 9.806 7.412 9.968L7.466 13.388C7.472 13.724 7.202 14 6.866 14H5.486C3.302 14 2 12.698 2 10.508V5.486C2 3.302 3.302 2 5.486 2H10.514C12.698 2 14 3.302 14 5.486V10.514Z" fill="#2B1E0F"/>
</svg>
