<svg width="33" height="32" viewBox="0 0 33 32" fill="none" xmlns="http://www.w3.org/2000/svg">
<g clip-path="url(#clip0_6004_176555)">
<path d="M16.4993 2.66602C20.122 2.66602 20.574 2.67935 21.9953 2.74602C23.4153 2.81268 24.382 3.03535 25.2327 3.36602C26.1127 3.70468 26.854 4.16335 27.5953 4.90335C28.2733 5.56988 28.798 6.37613 29.1327 7.26602C29.462 8.11535 29.686 9.08335 29.7527 10.5033C29.8153 11.9247 29.8327 12.3767 29.8327 15.9993C29.8327 19.622 29.8193 20.074 29.7527 21.4953C29.686 22.9153 29.462 23.882 29.1327 24.7327C28.7989 25.623 28.2742 26.4295 27.5953 27.0953C26.9286 27.7731 26.1224 28.2977 25.2327 28.6327C24.3833 28.962 23.4153 29.186 21.9953 29.2527C20.574 29.3153 20.122 29.3327 16.4993 29.3327C12.8767 29.3327 12.4247 29.3193 11.0033 29.2527C9.58335 29.186 8.61668 28.962 7.76602 28.6327C6.87578 28.2986 6.06939 27.7739 5.40335 27.0953C4.72522 26.4289 4.20059 25.6226 3.86602 24.7327C3.53535 23.8833 3.31268 22.9153 3.24602 21.4953C3.18335 20.074 3.16602 19.622 3.16602 15.9993C3.16602 12.3767 3.17935 11.9247 3.24602 10.5033C3.31268 9.08202 3.53535 8.11668 3.86602 7.26602C4.19966 6.37559 4.72442 5.56911 5.40335 4.90335C6.06958 4.22499 6.87592 3.70032 7.76602 3.36602C8.61668 3.03535 9.58202 2.81268 11.0033 2.74602C12.4247 2.68335 12.8767 2.66602 16.4993 2.66602ZM16.4993 9.33268C14.7312 9.33268 13.0355 10.0351 11.7853 11.2853C10.5351 12.5355 9.83268 14.2312 9.83268 15.9993C9.83268 17.7675 10.5351 19.4632 11.7853 20.7134C13.0355 21.9636 14.7312 22.666 16.4993 22.666C18.2675 22.666 19.9632 21.9636 21.2134 20.7134C22.4636 19.4632 23.166 17.7675 23.166 15.9993C23.166 14.2312 22.4636 12.5355 21.2134 11.2853C19.9632 10.0351 18.2675 9.33268 16.4993 9.33268ZM25.166 8.99935C25.166 8.55732 24.9904 8.1334 24.6779 7.82084C24.3653 7.50828 23.9414 7.33268 23.4993 7.33268C23.0573 7.33268 22.6334 7.50828 22.3208 7.82084C22.0083 8.1334 21.8327 8.55732 21.8327 8.99935C21.8327 9.44138 22.0083 9.8653 22.3208 10.1779C22.6334 10.4904 23.0573 10.666 23.4993 10.666C23.9414 10.666 24.3653 10.4904 24.6779 10.1779C24.9904 9.8653 25.166 9.44138 25.166 8.99935ZM16.4993 11.9993C17.5602 11.9993 18.5776 12.4208 19.3278 13.1709C20.0779 13.9211 20.4993 14.9385 20.4993 15.9993C20.4993 17.0602 20.0779 18.0776 19.3278 18.8278C18.5776 19.5779 17.5602 19.9993 16.4993 19.9993C15.4385 19.9993 14.4211 19.5779 13.6709 18.8278C12.9208 18.0776 12.4993 17.0602 12.4993 15.9993C12.4993 14.9385 12.9208 13.9211 13.6709 13.1709C14.4211 12.4208 15.4385 11.9993 16.4993 11.9993Z" fill="#2B1E0F"/>
</g>
<defs>
<clipPath id="clip0_6004_176555">
<rect width="32" height="32" fill="white" transform="translate(0.5)"/>
</clipPath>
</defs>
</svg>
