<svg width="16" height="16" viewBox="0 0 16 16" fill="none" xmlns="http://www.w3.org/2000/svg">
<path d="M7.89763 7.97293C7.96012 8.00816 8.03781 8.00816 8.10029 7.97293L14.6673 4.38047C14.4022 3.39659 13.5054 2.66602 12.4321 2.66602H3.56578C2.4959 2.66602 1.60166 3.39155 1.33398 4.37124L7.89763 7.97293Z" fill="#2B1E0F"/>
<path d="M8.70482 8.44429C8.48482 8.55927 8.24315 8.61675 8.00148 8.61675C7.75982 8.61675 7.51648 8.55926 7.29648 8.4435L1.33398 5.33203V11.1664C1.33398 12.361 2.36148 13.332 3.62565 13.332H12.3757C13.6398 13.332 14.6673 12.361 14.6673 11.1664V5.34148L8.70482 8.44429Z" fill="#2B1E0F"/>
</svg>
