<svg width="16" height="16" viewBox="0 0 16 16" fill="none" xmlns="http://www.w3.org/2000/svg">
<path d="M5.39398 7.75364H2.26732C2.32065 4.64031 2.93398 4.12697 4.84732 2.99364C5.06732 2.86031 5.14065 2.58031 5.00732 2.35364C4.88065 2.13364 4.59398 2.06031 4.37398 2.19364C2.12065 3.52697 1.33398 4.34031 1.33398 8.21364V11.807C1.33398 12.947 2.26065 13.867 3.39398 13.867H5.39398C6.56732 13.867 7.45398 12.9803 7.45398 11.807V9.80697C7.45398 8.64031 6.56732 7.75364 5.39398 7.75364Z" fill="#2B1E0F"/>
<path d="M12.6077 7.75364H9.48102C9.53435 4.64031 10.1477 4.12697 12.061 2.99364C12.281 2.86031 12.3543 2.58031 12.221 2.35364C12.0877 2.13364 11.8077 2.06031 11.581 2.19364C9.32768 3.52697 8.54102 4.34031 8.54102 8.22031V11.8136C8.54102 12.9536 9.46768 13.8736 10.601 13.8736H12.601C13.7743 13.8736 14.661 12.987 14.661 11.8136V9.81364C14.6677 8.64031 13.781 7.75364 12.6077 7.75364Z" fill="#2B1E0F"/>
</svg>
