<svg width="16" height="16" viewBox="0 0 16 16" fill="none" xmlns="http://www.w3.org/2000/svg">
<path d="M15.0786 6.03281C15.0004 5.79192 14.7915 5.61592 14.5408 5.57948L10.4342 4.98303L8.59773 1.26126C8.37373 0.806144 7.62617 0.806144 7.40217 1.26126L5.56573 4.98214L1.45906 5.57859C1.2084 5.61503 0.999507 5.79103 0.921285 6.03192C0.843063 6.27281 0.907951 6.53859 1.09017 6.71548L4.06173 9.61148L3.35951 13.7013C3.31684 13.9519 3.41906 14.2044 3.6244 14.3537C3.82973 14.5021 4.10262 14.5217 4.32662 14.4044L7.99951 12.4728L11.6724 14.4044C11.7702 14.4559 11.876 14.4808 11.9826 14.4808C12.1204 14.4808 12.2582 14.4381 12.3746 14.3537C12.58 14.2044 12.6831 13.9519 12.6395 13.7013L11.9373 9.61148L14.9088 6.71548C15.0911 6.53859 15.156 6.27281 15.0777 6.03192L15.0786 6.03281Z" fill="#2B1E0F"/>
</svg>
