<svg width="33" height="32" viewBox="0 0 33 32" fill="none" xmlns="http://www.w3.org/2000/svg">
<path fill-rule="evenodd" clip-rule="evenodd" d="M29.8327 15.9993C29.8327 23.3631 23.8631 29.3327 16.4993 29.3327C9.13555 29.3327 3.16602 23.3631 3.16602 15.9993C3.16602 8.63555 9.13555 2.66602 16.4993 2.66602C23.8631 2.66602 29.8327 8.63555 29.8327 15.9993ZM16.9771 12.5093C15.6803 13.0487 13.0884 14.1651 9.20147 15.8586C8.57029 16.1096 8.23966 16.3551 8.20956 16.5952C8.15868 17.001 8.66683 17.1608 9.35878 17.3783C9.4529 17.408 9.55044 17.4387 9.65041 17.4711C10.3312 17.6925 11.2469 17.9513 11.723 17.9616C12.1549 17.9709 12.6368 17.7929 13.169 17.4275C16.8007 14.976 18.6753 13.7369 18.793 13.7102C18.8761 13.6914 18.9911 13.6677 19.0691 13.737C19.147 13.8062 19.1395 13.9375 19.1311 13.9727C19.0808 14.1872 17.0861 16.0417 16.0539 17.0013C15.7321 17.3005 15.5039 17.5127 15.4572 17.5611C15.3527 17.6698 15.2461 17.7725 15.1438 17.8711C14.5113 18.4808 14.037 18.938 15.17 19.6847C15.7146 20.0435 16.1502 20.3401 16.5849 20.6361C17.0596 20.9595 17.533 21.2819 18.1456 21.6835C18.3017 21.7858 18.4507 21.892 18.5959 21.9955C19.1483 22.3893 19.6447 22.7431 20.2578 22.6867C20.6141 22.6539 20.9821 22.3189 21.169 21.3198C21.6107 18.9585 22.4789 13.8421 22.6796 11.7338C22.6972 11.549 22.6751 11.3126 22.6573 11.2089C22.6396 11.1051 22.6025 10.9572 22.4676 10.8478C22.3078 10.7182 22.0612 10.6908 21.9509 10.6928C21.4493 10.7016 20.68 10.9691 16.9771 12.5093Z" fill="#2B1E0F"/>
</svg>
