<svg width="16" height="16" viewBox="0 0 16 16" fill="none" xmlns="http://www.w3.org/2000/svg">
<path d="M14.3726 7.16036L13.4659 6.10703C13.2926 5.90703 13.1526 5.5337 13.1526 5.26703V4.1337C13.1526 3.42703 12.5726 2.84703 11.8659 2.84703H10.7326C10.4726 2.84703 10.0926 2.70703 9.8926 2.5337L8.83927 1.62703C8.37927 1.2337 7.62594 1.2337 7.15927 1.62703L6.1126 2.54036C5.9126 2.70703 5.5326 2.84703 5.2726 2.84703H4.11927C3.4126 2.84703 2.8326 3.42703 2.8326 4.1337V5.2737C2.8326 5.5337 2.6926 5.90703 2.52594 6.10703L1.62594 7.16703C1.23927 7.62703 1.23927 8.3737 1.62594 8.8337L2.52594 9.8937C2.6926 10.0937 2.8326 10.467 2.8326 10.727V11.867C2.8326 12.5737 3.4126 13.1537 4.11927 13.1537H5.2726C5.5326 13.1537 5.9126 13.2937 6.1126 13.467L7.16594 14.3737C7.62594 14.767 8.37927 14.767 8.84594 14.3737L9.89927 13.467C10.0993 13.2937 10.4726 13.1537 10.7393 13.1537H11.8726C12.5793 13.1537 13.1593 12.5737 13.1593 11.867V10.7337C13.1593 10.4737 13.2993 10.0937 13.4726 9.8937L14.3793 8.84036C14.7659 8.38036 14.7659 7.62036 14.3726 7.16036ZM10.7726 6.74036L7.5526 9.96036C7.45927 10.0537 7.3326 10.107 7.19927 10.107C7.06594 10.107 6.93927 10.0537 6.84594 9.96036L5.2326 8.34703C5.03927 8.1537 5.03927 7.8337 5.2326 7.64036C5.42594 7.44703 5.74594 7.44703 5.93927 7.64036L7.19927 8.90036L10.0659 6.0337C10.2593 5.84036 10.5793 5.84036 10.7726 6.0337C10.9659 6.22703 10.9659 6.54703 10.7726 6.74036Z" fill="#2B1E0F"/>
</svg>
